# Blender v2.93.5 OBJ File: ''
# www.blender.org
mtllib Cascade.mtl
o Plane
v -1.000000 -0.930490 -0.468243
v 1.000000 -0.930490 -0.468243
v -0.957245 1.037962 -0.983188
v 0.957245 1.037962 -0.983188
v 0.000000 -0.819269 0.220511
v 0.000000 1.724830 -1.026753
v -0.625400 1.536696 -0.987448
v -0.625400 -0.855530 0.031767
v 0.625400 -0.855530 0.031767
v 0.625400 1.536696 -0.987448
v -1.000000 0.038716 -0.550784
v 1.000000 0.038716 -0.550784
v 0.000000 0.149937 0.137970
v -0.625400 0.113676 -0.050774
v 0.625400 0.113676 -0.050774
v 1.000000 0.929854 -0.763202
v 0.000000 1.459557 -0.309146
v -0.625400 1.309984 -0.429840
v 0.625400 1.309984 -0.429840
v -1.000000 0.929854 -0.763202
v -1.000000 0.717544 -0.656993
v 1.000000 0.717544 -0.656993
v 0.000000 1.038006 -0.085588
v -0.625400 0.945089 -0.240307
v 0.625400 0.945089 -0.240307
v -1.000000 -2.491537 -0.468243
v 1.000000 -2.491537 -0.468243
v 0.000000 -2.380315 0.220511
v -0.625400 -2.416576 0.031767
v 0.625400 -2.416576 0.031767
vt 0.178037 0.447060
vt 0.216995 0.599749
vt 0.045347 0.592352
vt 0.041087 0.448403
vt 0.166962 0.136363
vt 0.158642 0.293557
vt 0.049292 0.297249
vt 0.041086 0.138713
vt 0.196076 0.009512
vt 0.044115 0.020601
vt 0.631961 0.293556
vt 0.635949 0.422180
vt 0.426295 0.429688
vt 0.427974 0.293556
vt 0.634575 0.067777
vt 0.627336 0.190770
vt 0.426294 0.157425
vt 0.417817 0.016507
vt 0.643189 0.550094
vt 0.415358 0.593983
vt 0.248983 0.293557
vt 0.258423 0.450726
vt 0.253311 0.007803
vt 0.247349 0.132697
vt 0.274230 0.601458
vt 0.981330 0.419238
vt 0.985159 0.535358
vt 0.980032 0.293556
vt 0.977776 0.054214
vt 0.982561 0.183869
vn 0.7989 0.5672 0.2003
vn -0.2654 0.8995 0.3470
vn -0.7989 0.5672 0.2003
vn 0.2654 0.8995 0.3470
vn 0.2923 0.0812 0.9529
vn -0.8029 0.0506 0.5939
vn -0.2923 0.0812 0.9529
vn 0.8029 0.0506 0.5939
vn 0.2742 0.4472 0.8514
vn -0.7835 0.2834 0.5530
vn -0.2742 0.4472 0.8514
vn 0.7835 0.2834 0.5530
vn 0.7876 0.1184 0.6047
vn -0.2795 0.2243 0.9336
vn -0.7876 0.1184 0.6047
vn 0.2795 0.2243 0.9336
vn 0.8003 0.0000 0.5996
vn 0.2889 0.0000 0.9574
vn -0.8003 0.0000 0.5996
vn -0.2889 0.0000 0.9574
usemtl None
s off
f 19/1/1 16/2/1 4/3/1 10/4/1
f 18/5/2 17/6/2 6/7/2 7/8/2
f 20/9/3 18/5/3 7/8/3 3/10/3
f 17/6/4 19/1/4 10/4/4 6/7/4
f 5/11/5 9/12/5 15/13/5 13/14/5
f 1/15/6 8/16/6 14/17/6 11/18/6
f 8/16/7 5/11/7 13/14/7 14/17/7
f 9/12/8 2/19/8 12/20/8 15/13/8
f 23/21/9 25/22/9 19/1/9 17/6/9
f 21/23/10 24/24/10 18/5/10 20/9/10
f 24/24/11 23/21/11 17/6/11 18/5/11
f 25/22/12 22/25/12 16/2/12 19/1/12
f 15/13/13 12/20/13 22/25/13 25/22/13
f 14/17/14 13/14/14 23/21/14 24/24/14
f 11/18/15 14/17/15 24/24/15 21/23/15
f 13/14/16 15/13/16 25/22/16 23/21/16
f 2/19/17 9/12/17 30/26/17 27/27/17
f 9/12/18 5/11/18 28/28/18 30/26/18
f 8/16/19 1/15/19 26/29/19 29/30/19
f 5/11/20 8/16/20 29/30/20 28/28/20
