# Blender v2.93.5 OBJ File: ''
# www.blender.org
mtllib WaveRing.mtl
o Plane_Plane.001
v -0.671875 0.000000 0.671875
v 0.671875 0.000000 0.671875
v -0.671875 0.000000 -0.671875
v 0.671875 0.000000 -0.671875
v -0.854167 0.000000 -0.364583
v -0.916667 0.000000 0.000000
v -0.854167 0.000000 0.364583
v -0.364583 0.000000 0.854167
v 0.000000 0.000000 0.916667
v 0.364583 0.000000 0.854167
v 0.854167 0.000000 0.364583
v 0.916667 0.000000 0.000000
v 0.854167 0.000000 -0.364583
v 0.364583 0.000000 -0.854167
v 0.000000 0.000000 -0.916667
v -0.364583 0.000000 -0.854167
v -0.806567 0.516027 0.806567
v 0.806567 0.516027 0.806567
v -0.806567 0.516027 -0.806567
v 0.806567 0.516027 -0.806567
v -1.025403 0.516027 -0.437672
v -1.100432 0.516027 0.000000
v -1.025403 0.516027 0.437672
v -0.437672 0.516027 1.025403
v -0.000000 0.516027 1.100432
v 0.437672 0.516027 1.025403
v 1.025403 0.516027 0.437672
v 1.100432 0.516027 0.000000
v 1.025403 0.516027 -0.437672
v 0.437672 0.516027 -1.025403
v -0.000000 0.516027 -1.100432
v -0.437672 0.516027 -1.025403
vt 0.217747 0.168787
vt 0.217842 0.333271
vt 0.000162 0.327411
vt 0.000444 0.166100
vt 0.220677 0.495802
vt 0.000444 0.494582
vt 0.719701 0.169763
vt 0.717842 0.328388
vt 0.500162 0.327411
vt 0.502397 0.168053
vt 0.212729 0.006959
vt 0.001271 0.000162
vt 0.720541 0.001099
vt 0.502248 0.001138
vt 0.969701 0.495802
vt 0.971518 0.654700
vt 0.752248 0.655638
vt 0.751420 0.497512
vt 0.462865 0.495802
vt 0.463706 0.653724
vt 0.250295 0.654661
vt 0.251420 0.494583
vt 0.968819 0.326435
vt 0.750162 0.327411
vt 0.459053 0.327412
vt 0.248209 0.332294
vt 0.968724 0.161951
vt 0.752397 0.161217
vt 0.460912 0.168787
vt 0.252397 0.168053
vt 0.970541 0.003053
vt 0.750295 0.003091
vt 0.459799 0.005006
vt 0.247365 0.003091
vt 0.719701 0.493848
vt 0.720541 0.655677
vt 0.500295 0.653685
vt 0.501420 0.492629
vt 0.220541 0.656653
vt 0.002248 0.654661
vn 0.8098 0.3368 0.4804
vn 0.4804 0.3368 0.8098
vn -0.8098 0.3368 -0.4804
vn 0.9300 0.3312 0.1594
vn -0.9300 0.3312 -0.1594
vn 0.9300 0.3312 -0.1594
vn -0.9300 0.3312 0.1594
vn 0.8098 0.3368 -0.4804
vn -0.8098 0.3368 0.4804
vn 0.4804 0.3368 -0.8098
vn -0.4804 0.3368 0.8098
vn 0.1594 0.3312 -0.9300
vn -0.1594 0.3312 0.9300
vn -0.1594 0.3312 -0.9300
vn 0.1594 0.3312 0.9300
vn -0.4804 0.3368 -0.8098
usemtl None
s off
f 5/1/1 3/2/1 19/3/1 21/4/1
f 3/2/2 16/5/2 32/6/2 19/3/2
f 11/7/3 2/8/3 18/9/3 27/10/3
f 6/11/4 5/1/4 21/4/4 22/12/4
f 12/13/5 11/7/5 27/10/5 28/14/5
f 7/15/6 6/16/6 22/17/6 23/18/6
f 13/19/7 12/20/7 28/21/7 29/22/7
f 1/23/8 7/15/8 23/18/8 17/24/8
f 4/25/9 13/19/9 29/22/9 20/26/9
f 8/27/10 1/23/10 17/24/10 24/28/10
f 14/29/11 4/25/11 20/26/11 30/30/11
f 9/31/12 8/27/12 24/28/12 25/32/12
f 15/33/13 14/29/13 30/30/13 31/34/13
f 10/35/14 9/36/14 25/37/14 26/38/14
f 16/5/15 15/39/15 31/40/15 32/6/15
f 2/8/16 10/35/16 26/38/16 18/9/16
